<svg width="1309" height="717" viewBox="0 0 1309 717" fill="none" xmlns="http://www.w3.org/2000/svg">
<g opacity="0.2">
<path d="M306.998 320.473H574.414L554.929 306.219C507.061 271.305 449.988 252.406 391.534 252.406H241.794V408.719C241.794 469.738 259.744 529.316 293.344 579.285L306.998 599.625V320.473Z" fill="#EED4C4" fill-opacity="0.5"/>
<path d="M306.498 319.973H306.998H572.883L554.634 306.623L306.498 319.973ZM306.498 319.973V320.473V597.983M306.498 319.973V597.983M306.498 597.983L293.759 579.006L293.759 579.006C260.216 529.121 242.294 469.641 242.294 408.719V252.906H391.534C449.879 252.906 506.85 271.769 554.634 306.622L306.498 597.983Z" stroke="#533019" stroke-opacity="0.08"/>
<path d="M1189.18 902.319C1211.73 828.487 1247.78 759.94 1295.35 700.522L1309 683.386L1295.35 666.249C1247.78 606.831 1211.73 538.284 1189.18 464.453L1181.05 438.027V348.339C1181.05 288.922 1185.19 229.504 1193.32 170.726L1201.45 112.43L1145.61 120.918C1089.3 129.406 1032.38 133.73 975.46 133.73H889.543L864.075 125.242C793.347 101.699 727.836 64.0624 670.916 14.414L654.5 0L638.084 14.414C581.164 64.0624 515.653 101.699 444.925 125.242L419.457 133.73H333.54C276.621 133.73 219.701 129.406 163.395 120.918L107.549 112.43L115.68 170.726C123.812 229.504 127.954 288.922 127.954 348.339V438.027L119.823 464.453C97.2698 538.284 61.2155 606.831 13.6546 666.249L0 683.386L13.808 700.522C61.369 759.94 97.4232 828.327 119.976 902.159L128.108 928.745V1018.43C128.108 1077.85 123.965 1137.27 115.834 1196.05L107.703 1254.34L163.548 1245.85C219.854 1237.37 276.774 1233.04 333.694 1233.04H419.61L445.078 1241.53C516.113 1265.07 581.164 1302.39 638.237 1352.36L654.653 1366.61L671.07 1352.36C728.296 1302.39 793.194 1265.07 864.228 1241.53L889.697 1233.04H975.613C1032.53 1233.04 1089.45 1237.37 1145.76 1245.85L1201.6 1254.34L1193.47 1196.05C1185.34 1137.27 1181.2 1077.85 1181.2 1018.43V928.745L1189.33 902.319H1189.18ZM1148.52 1199.09H889.543L864.075 1190.6C793.04 1167.06 727.989 1129.74 670.916 1079.77L654.5 1065.52L638.084 1079.77C580.857 1129.74 515.96 1167.06 444.925 1190.6L419.61 1199.09H160.48V928.745L168.611 902.319C191.164 828.167 226.912 760.261 274.78 700.683L288.434 683.546L274.78 666.409C226.912 606.671 191.164 538.925 168.611 464.773L160.48 438.187V167.683H419.457L444.925 176.172C515.96 199.715 581.011 237.031 638.084 287L654.5 301.254L670.916 287C728.143 237.031 793.04 199.715 864.075 176.172L889.543 167.683H1148.52V438.027L1140.39 464.613C1117.84 538.765 1082.09 606.671 1034.22 666.249L1020.57 683.386L1034.22 700.522C1082.09 760.261 1117.84 828.007 1140.39 902.159L1148.52 928.745V1199.09ZM1242.88 683.386C1211.58 725.347 1185.34 770.671 1164.78 819.038C1144.22 770.671 1118.14 725.347 1086.69 683.386C1118.14 641.425 1144.22 596.101 1164.78 547.734C1185.34 596.101 1211.42 641.425 1242.88 683.386ZM654.5 69.1874C694.697 101.859 738.115 129.246 784.449 150.707C738.115 172.168 694.697 199.394 654.5 232.226C614.303 199.394 570.885 172.168 524.551 150.707C570.885 129.246 614.303 102.019 654.5 69.1874ZM66.2785 683.386C97.7301 641.425 123.812 596.101 144.37 547.734C164.929 596.101 191.011 641.425 222.462 683.386C191.164 725.347 164.929 770.671 144.37 819.038C123.812 770.671 97.7301 725.347 66.2785 683.386ZM654.5 1297.58C614.303 1264.75 570.885 1237.53 524.551 1216.06C570.885 1194.6 614.303 1167.38 654.5 1134.55C694.697 1167.38 738.115 1194.6 784.449 1216.06C738.115 1237.53 694.697 1264.75 654.5 1297.58Z" fill="#EED4C4" fill-opacity="0.5"/>
<path d="M1067.21 286.519V252.566H917.467C859.014 252.566 801.94 271.305 754.073 306.379L734.588 320.633H1000.62C990.343 456.125 919.155 573.839 815.595 644.148C753.919 609.875 680.123 589.375 605.56 586.812C595.28 586.492 585.155 585.371 575.029 584.089L519.336 576.722L523.939 628.773C527.161 665.289 527.161 701.964 523.939 738.32L519.336 790.37L575.029 783.003C585.155 781.722 595.28 780.601 605.56 780.281C680.123 777.718 753.919 757.218 815.595 722.945C919.155 793.093 990.343 910.968 1000.62 1046.46H734.588L754.073 1060.71C801.94 1095.63 859.014 1114.53 917.467 1114.53H1067.21V1080.57C1067.21 918.175 991.724 773.874 875.43 683.706C991.724 593.699 1067.21 449.238 1067.21 286.84V286.519ZM589.604 717.339V649.273C641.767 649.273 696.539 664.488 742.412 683.226C696.386 701.964 641.767 717.179 589.604 717.179V717.339Z" fill="#EED4C4" fill-opacity="0.5"/>
<path d="M736.118 320.133H1000.62H1001.16L1001.12 320.671C990.83 456.315 919.561 574.168 815.876 644.562L815.621 644.734L815.352 644.585C753.748 610.351 680.03 589.872 605.544 587.312C605.544 587.312 605.543 587.312 605.543 587.312L605.56 586.812L736.118 320.133ZM736.118 320.133L754.368 306.782L754.368 306.782C802.151 271.77 859.121 253.066 917.467 253.066H1066.71V286.519V286.84C1066.71 449.081 991.297 593.397 875.124 683.311L874.613 683.706L875.123 684.102C991.297 774.176 1066.71 918.332 1066.71 1080.57V1114.03H917.467C859.122 1114.03 802.151 1095.16 754.367 1060.31L736.118 1046.96H1000.62H1001.16L1001.12 1046.42C990.83 910.778 919.562 792.765 815.875 722.531L815.621 722.358L815.352 722.508C753.748 756.741 680.03 777.221 605.544 779.781C605.544 779.781 605.543 779.781 605.543 779.781L605.56 780.281M736.118 320.133L519.889 789.793L519.844 790.303L575.029 783.003C585.155 781.722 595.28 780.601 605.56 780.281M605.56 780.281C680.123 777.718 753.919 757.218 815.595 722.945C919.028 793.007 990.168 910.678 1000.58 1045.96H1000.62V1046.46L1000.12 1046.5C1000.12 1046.49 1000.12 1046.47 1000.12 1046.46M605.56 780.281L1000.12 1046.46M1000.12 1046.46H735.435H1000.12ZM523.939 628.773L524.437 628.729L519.889 577.3L523.939 628.773ZM735.271 1046.96L754.073 1060.71L735.271 1046.96ZM589.604 648.773H589.104V649.273V716.679V717.179V717.339H589.604V717.679C641.856 717.679 696.542 702.441 742.601 683.689L743.737 683.227L742.602 682.763C696.695 664.011 641.856 648.773 589.604 648.773Z" stroke="#533019" stroke-opacity="0.08"/>
</g>
</svg>
