<svg width="48" height="48" viewBox="0 0 48 48" fill="none" xmlns="http://www.w3.org/2000/svg">
<path d="M11.2574 11.2574H21.0633L20.3488 10.7567C18.5935 9.53025 16.5007 8.86639 14.3573 8.86639H8.86639V14.3573C8.86639 16.5007 9.52462 18.5935 10.7567 20.3488L11.2574 21.0633V11.2574Z" fill="#724122"/>
<path d="M11.2574 26.948L10.7567 27.6625C9.53025 29.4177 8.86639 31.5106 8.86639 33.654V39.1449H14.3573C16.5007 39.1449 18.5935 38.4866 20.3488 37.2546L21.0633 36.7539H11.2574V26.948Z" fill="#724122"/>
<path d="M43.6062 31.6962C44.4332 29.1027 45.7553 26.6948 47.4993 24.6076L48 24.0056L47.4993 23.4037C45.7553 21.3165 44.4332 18.9086 43.6062 16.3151L43.308 15.3868V12.2363C43.308 10.1491 43.4599 8.06188 43.7581 5.99719L44.0563 3.94937L42.0084 4.24754C39.9437 4.54571 37.8565 4.69761 35.7693 4.69761H32.6188L31.685 4.39944C29.0914 3.57243 26.6892 2.25035 24.602 0.506329L24 0L23.398 0.506329C21.3108 2.25035 18.9086 3.57243 16.3151 4.39944L15.3812 4.69761H12.2307C10.1435 4.69761 8.05626 4.54571 5.99156 4.24754L3.94374 3.94937L4.24191 5.99719C4.54008 8.06188 4.69198 10.1491 4.69198 12.2363V15.3868L4.39381 16.3151C3.56681 18.9086 2.24473 21.3165 0.500703 23.4037L0 24.0056L0.506329 24.6076C2.25035 26.6948 3.57243 29.097 4.39944 31.6906L4.69761 32.6245V35.775C4.69761 37.8622 4.54571 39.9494 4.24754 42.0141L3.94937 44.0619L5.99719 43.7637C8.06188 43.4655 10.1491 43.3136 12.2363 43.3136H15.3868L16.3207 43.6118C18.9255 44.4388 21.3108 45.7496 23.4037 47.5049L24.0056 48.0056L24.6076 47.5049C26.706 45.7496 29.0858 44.4388 31.6906 43.6118L32.6245 43.3136H35.775C37.8622 43.3136 39.9494 43.4655 42.0141 43.7637L44.0619 44.0619L43.7637 42.0141C43.4655 39.9494 43.3136 37.8622 43.3136 35.775V32.6245L43.6118 31.6962H43.6062ZM42.1153 42.121H32.6188L31.685 41.8228C29.0802 40.9958 26.6948 39.685 24.602 37.9297L24 37.429L23.398 37.9297C21.2996 39.685 18.9198 40.9958 16.3151 41.8228L15.3868 42.121H5.88467V32.6245L6.18284 31.6962C7.00985 29.0914 8.32067 26.706 10.0759 24.6132L10.5767 24.0112L10.0759 23.4093C8.32067 21.3108 7.00985 18.9311 6.18284 16.3263L5.88467 15.3924V5.8903H15.3812L16.3151 6.18847C18.9198 7.01547 21.3052 8.3263 23.398 10.0816L24 10.5823L24.602 10.0816C26.7004 8.3263 29.0802 7.01547 31.685 6.18847L32.6188 5.8903H42.1153V15.3868L41.8172 16.3207C40.9902 18.9255 39.6793 21.3108 37.9241 23.4037L37.4233 24.0056L37.9241 24.6076C39.6793 26.706 40.9902 29.0858 41.8172 31.6906L42.1153 32.6245V42.121ZM45.5752 24.0056C44.4276 25.4796 43.4655 27.0717 42.7117 28.7707C41.9578 27.0717 41.0014 25.4796 39.8481 24.0056C41.0014 22.5316 41.9578 20.9395 42.7117 19.2405C43.4655 20.9395 44.4219 22.5316 45.5752 24.0056ZM24 2.43038C25.474 3.57806 27.0661 4.54008 28.7651 5.29395C27.0661 6.04782 25.474 7.00422 24 8.15753C22.526 7.00422 20.9339 6.04782 19.2349 5.29395C20.9339 4.54008 22.526 3.58369 24 2.43038ZM2.43038 24.0056C3.58369 22.5316 4.54008 20.9395 5.29395 19.2405C6.04782 20.9395 7.00422 22.5316 8.15753 24.0056C7.00985 25.4796 6.04782 27.0717 5.29395 28.7707C4.54008 27.0717 3.58369 25.4796 2.43038 24.0056ZM24 45.5809C22.526 44.4276 20.9339 43.4712 19.2349 42.7173C20.9339 41.9634 22.526 41.007 24 39.8537C25.474 41.007 27.0661 41.9634 28.7651 42.7173C27.0661 43.4712 25.474 44.4276 24 45.5809Z" fill="#9B582E"/>
<path d="M39.1336 10.0647V8.87204H33.6427C31.4993 8.87204 29.4065 9.53027 27.6512 10.7623L26.9367 11.263H36.692C36.315 16.0225 33.7046 20.1576 29.9072 22.6273C27.6455 21.4234 24.9395 20.7033 22.2053 20.6132C21.8284 20.602 21.4571 20.5626 21.0858 20.5176L19.0436 20.2588L19.2124 22.0872C19.3305 23.3699 19.3305 24.6583 19.2124 25.9353L19.0436 27.7637L21.0858 27.505C21.4571 27.4599 21.8284 27.4206 22.2053 27.4093C24.9395 27.3193 27.6455 26.5992 29.9072 25.3952C33.7046 27.8594 36.315 32 36.692 36.7595H26.9367L27.6512 37.2602C29.4065 38.4867 31.4993 39.1505 33.6427 39.1505H39.1336V37.9578C39.1336 32.2532 36.3657 27.1843 32.1012 24.0169C36.3657 20.8552 39.1336 15.7806 39.1336 10.076V10.0647ZM21.6202 25.1983V22.8073C23.533 22.8073 25.5415 23.3418 27.2236 24C25.5358 24.6583 23.533 25.1927 21.6202 25.1927V25.1983Z" fill="#724122"/>
</svg>
