<svg width="1309" height="992" viewBox="0 0 1309 992" fill="none" xmlns="http://www.w3.org/2000/svg">
<g opacity="0.2">
<path d="M306.998 232.553H574.414L554.929 222.21C507.061 196.874 449.988 183.16 391.534 183.16H241.794V296.59C241.794 340.869 259.744 384.102 293.344 420.362L306.998 435.122V232.553Z" fill="#EED4C4"/>
<path d="M306.498 232.053H306.998H572.405L554.695 222.652L306.498 232.053ZM306.498 232.053V232.553V433.845M306.498 232.053V433.845M306.498 433.845L293.711 420.023L293.711 420.022C260.186 383.843 242.294 340.728 242.294 296.59V183.66H391.534C449.912 183.66 506.904 197.357 554.694 222.651L306.498 433.845Z" stroke="#533019" stroke-opacity="0.08"/>
<path d="M306.998 556.687L293.344 571.446C259.898 607.706 241.794 650.94 241.794 695.219V808.648H391.534C449.988 808.648 507.061 795.051 554.929 769.599L574.414 759.255H306.998V556.687Z" fill="#EED4C4"/>
<path d="M391.534 808.148H242.294V695.219C242.294 651.081 260.339 607.965 293.711 571.785L306.498 557.963V759.255V759.755H306.998H572.405L554.694 769.157L554.694 769.157C506.905 794.568 449.913 808.148 391.534 808.148Z" stroke="#533019" stroke-opacity="0.08"/>
<path d="M1189.18 654.774C1211.73 601.198 1247.78 551.456 1295.35 508.339L1309 495.904L1295.35 483.469C1247.78 440.352 1211.73 390.61 1189.18 337.033L1181.05 317.857V252.775C1181.05 209.658 1185.19 166.541 1193.32 123.889L1201.45 81.5853L1145.61 87.7449C1089.3 93.9045 1032.38 97.0424 975.46 97.0424H889.543L864.075 90.8828C793.347 73.7987 727.836 46.4874 670.916 10.4597L654.5 0L638.084 10.4597C581.164 46.4874 515.653 73.7987 444.925 90.8828L419.457 97.0424H333.54C276.621 97.0424 219.701 93.9045 163.395 87.7449L107.549 81.5853L115.68 123.889C123.812 166.541 127.954 209.658 127.954 252.775V317.857L119.823 337.033C97.2698 390.61 61.2155 440.352 13.6546 483.469L0 495.904L13.808 508.339C61.369 551.456 97.4232 601.082 119.976 654.658L128.108 673.951V739.033C128.108 782.15 123.965 825.267 115.834 867.919L107.703 910.223L163.548 904.063C219.854 897.904 276.774 894.766 333.694 894.766H419.61L445.078 900.925C516.113 918.009 581.164 945.088 638.237 981.348L654.653 991.692L671.07 981.348C728.296 945.088 793.194 918.009 864.228 900.925L889.697 894.766H975.613C1032.53 894.766 1089.45 897.904 1145.76 904.063L1201.6 910.223L1193.47 867.919C1185.34 825.267 1181.2 782.15 1181.2 739.033V673.951L1189.33 654.774H1189.18ZM1148.52 870.127H889.543L864.075 863.968C793.04 846.884 727.989 819.805 670.916 783.545L654.5 773.201L638.084 783.545C580.857 819.805 515.96 846.884 444.925 863.968L419.61 870.127H160.48V673.951L168.611 654.774C191.164 600.965 226.912 551.689 274.78 508.456L288.434 496.02L274.78 483.585C226.912 440.235 191.164 391.075 168.611 337.266L160.48 317.974V121.681H419.457L444.925 127.84C515.96 144.924 581.011 172.003 638.084 208.263L654.5 218.607L670.916 208.263C728.143 172.003 793.04 144.924 864.075 127.84L889.543 121.681H1148.52V317.857L1140.39 337.15C1117.84 390.959 1082.09 440.235 1034.22 483.469L1020.57 495.904L1034.22 508.339C1082.09 551.689 1117.84 600.849 1140.39 654.658L1148.52 673.951V870.127ZM1242.88 495.904C1211.58 526.353 1185.34 559.243 1164.78 594.341C1144.22 559.243 1118.14 526.353 1086.69 495.904C1118.14 465.455 1144.22 432.565 1164.78 397.467C1185.34 432.565 1211.42 465.455 1242.88 495.904ZM654.5 50.2064C694.697 73.9149 738.115 93.7883 784.449 109.362C738.115 124.935 694.697 144.692 654.5 168.517C614.303 144.692 570.885 124.935 524.551 109.362C570.885 93.7883 614.303 74.0311 654.5 50.2064ZM66.2785 495.904C97.7301 465.455 123.812 432.565 144.37 397.467C164.929 432.565 191.011 465.455 222.462 495.904C191.164 526.353 164.929 559.243 144.37 594.341C123.812 559.243 97.7301 526.353 66.2785 495.904ZM654.5 941.602C614.303 917.777 570.885 898.02 524.551 882.446C570.885 866.873 614.303 847.116 654.5 823.291C694.697 847.116 738.115 866.873 784.449 882.446C738.115 898.02 694.697 917.777 654.5 941.602Z" fill="#EED4C4"/>
<path d="M1067.21 207.915V183.277H917.467C859.014 183.277 801.94 196.874 754.073 222.326L734.588 232.67H1000.62C990.343 330.99 919.155 416.411 815.595 467.431C753.919 442.56 680.123 427.684 605.56 425.825C595.28 425.592 585.155 424.779 575.029 423.849L519.336 418.503L523.939 456.274C527.161 482.772 527.161 509.386 523.939 535.767L519.336 573.538L575.029 568.192C585.155 567.262 595.28 566.449 605.56 566.216C680.123 564.357 753.919 549.481 815.595 524.61C919.155 575.514 990.343 661.051 1000.62 759.371H734.588L754.073 769.715C801.94 795.05 859.014 808.764 917.467 808.764H1067.21V784.126C1067.21 666.28 991.724 561.568 875.43 496.137C991.724 430.822 1067.21 325.993 1067.21 208.147V207.915ZM589.604 520.543V471.15C641.767 471.15 696.539 482.19 742.412 495.788C696.386 509.386 641.767 520.426 589.604 520.426V520.543Z" fill="#EED4C4"/>
<path d="M736.596 232.17H1000.62H1001.18L1001.12 232.721C990.818 331.26 919.482 416.807 815.816 467.879L815.615 467.978L815.408 467.894C753.793 443.048 680.057 428.183 605.548 426.324C605.548 426.324 605.548 426.324 605.547 426.324L605.56 425.825C595.28 425.592 585.155 424.779 575.029 423.849L736.596 232.17ZM736.596 232.17L754.307 222.768L754.307 222.768C802.097 197.357 859.088 183.777 917.467 183.777H1066.71V207.915V208.147C1066.71 325.763 991.37 430.447 875.185 495.701L874.409 496.136L875.185 496.572C991.37 561.942 1066.71 666.511 1066.71 784.126V808.264H917.467C859.089 808.264 802.098 794.568 754.307 769.273C754.307 769.273 754.307 769.273 754.307 769.273L736.596 759.871H1000.62H1001.18L1001.12 759.319C990.818 660.781 919.483 575.118 815.816 524.161L815.615 524.063L815.408 524.146C753.793 548.993 680.057 563.858 605.548 565.716M736.596 232.17L519.908 572.981M519.908 572.981L574.981 567.694L574.983 567.694C585.111 566.764 595.251 565.949 605.548 565.716M519.908 572.981L524.435 535.828C527.662 509.406 527.662 482.751 524.435 456.213L523.939 456.274L524.435 456.213L519.908 419.06L519.908 572.981ZM605.548 565.716L605.56 566.216M605.548 565.716C605.548 565.716 605.548 565.716 605.547 565.716L605.56 566.216M605.56 566.216C680.123 564.357 753.919 549.481 815.595 524.61L575.029 568.192C585.155 567.262 595.28 566.449 605.56 566.216ZM589.604 470.65H589.104V471.15V519.926V520.426V520.543H589.604V520.926C641.832 520.926 696.5 509.873 742.554 496.268L744.175 495.789L742.555 495.309C696.654 481.703 641.832 470.65 589.604 470.65Z" stroke="#533019" stroke-opacity="0.08"/>
</g>
</svg>
